HIERARCHY
ROOT Hips
{
    OFFSET 0.000000 0.000000 0.000000
    CHANNELS 6 Xposition Yposition Zposition Zrotation Xrotation Yrotation
    JOINT Spine
    {
        OFFSET -0.000000 7.236184 0.000000
        CHANNELS 3 Zrotation Xrotation Yrotation
        JOINT Spine1
        {
            OFFSET -0.000000 20.420147 0.000000
            CHANNELS 3 Zrotation Xrotation Yrotation
            JOINT Neck
            {
                OFFSET -0.000000 20.336288 1.848754
                CHANNELS 3 Zrotation Xrotation Yrotation
                JOINT Head
                {
                    OFFSET -0.000000 12.354461 -1.764923
                    CHANNELS 3 Zrotation Xrotation Yrotation
                    End Site
                    {
                        OFFSET -0.000000 22.061537 0.000000
                    }
                }
            }
            JOINT LeftShoulder
            {
                OFFSET 3.573296 18.396038 -0.314103
                CHANNELS 3 Zrotation Xrotation Yrotation
                JOINT LeftArm
                {
                    OFFSET 10.880760 0.000000 0.000000
                    CHANNELS 3 Zrotation Xrotation Yrotation
                    JOINT LeftForeArm
                    {
                        OFFSET 27.185530 0.000000 0.000000
                        CHANNELS 3 Zrotation Xrotation Yrotation
                        JOINT LeftHand
                        {
                            OFFSET 27.825975 0.000000 0.000000
                            CHANNELS 3 Zrotation Xrotation Yrotation
                            End Site
                            {
                                OFFSET 13.236923 0.000000 0.000000
                            }
                        }
                    }
                }
            }
            JOINT RightShoulder
            {
                OFFSET -3.474926 18.396038 -0.314103
                CHANNELS 3 Zrotation Xrotation Yrotation
                JOINT RightArm
                {
                    OFFSET -10.880760 0.000000 0.000000
                    CHANNELS 3 Zrotation Xrotation Yrotation
                    JOINT RightForeArm
                    {
                        OFFSET -27.185530 0.000000 0.000000
                        CHANNELS 3 Zrotation Xrotation Yrotation
                        JOINT RightHand
                        {
                            OFFSET -27.825975 0.000000 0.000000
                            CHANNELS 3 Zrotation Xrotation Yrotation
                            End Site
                            {
                                OFFSET -13.236923 0.000000 0.000000
                            }
                        }
                    }
                }
            }
        }
    }
    JOINT LeftUpLeg
    {
        OFFSET 8.824615 0.000000 0.000000
        CHANNELS 3 Zrotation Xrotation Yrotation
        JOINT LeftLeg
        {
            OFFSET -0.000000 -35.111282 0.000000
            CHANNELS 3 Zrotation Xrotation Yrotation
            JOINT LeftFoot
            {
                OFFSET -0.000000 -42.324711 0.000000
                CHANNELS 3 Zrotation Xrotation Yrotation
                JOINT LeftToeBase
                {
                    OFFSET -0.000000 -5.735999 13.236923
                    CHANNELS 3 Zrotation Xrotation Yrotation
                    End Site
                    {
                        OFFSET -0.000000 0.000000 3.529846
                    }
                }
            }
        }
    }
    JOINT RightUpLeg
    {
        OFFSET -8.824615 0.000000 0.000000
        CHANNELS 3 Zrotation Xrotation Yrotation
        JOINT RightLeg
        {
            OFFSET -0.000000 -35.111282 0.000000
            CHANNELS 3 Zrotation Xrotation Yrotation
            JOINT RightFoot
            {
                OFFSET -0.000000 -42.324711 0.000000
                CHANNELS 3 Zrotation Xrotation Yrotation
                JOINT RightToeBase
                {
                    OFFSET -0.000000 -5.735999 13.236923
                    CHANNELS 3 Zrotation Xrotation Yrotation
                    End Site
                    {
                        OFFSET -0.000000 0.000000 3.529846
                    }
                }
            }
        }
    }
}
MOTION
Frames:    5
Frame Time:    0.008333
-4.397170    80.009796    105.431282    -0.183007    -3.880679    -171.704437    -0.962859    -12.308350    1.528200    0.214162    9.254959    1.614722    1.187296    5.779261    -2.672334    7.392157    -6.959481    -1.402082    2.690969    17.223267    -2.299434    -44.756184    48.280861    -41.784092    0.800597    -9.030203    -18.460159    16.682510    -8.665696    1.628585    6.237662    22.056683    -2.799893    34.957378    46.456688    44.000572    -3.152144    -8.123284    18.151583    -16.543095    -7.139616    -3.361507    7.805953    -6.152715    0.100885    -2.098638    13.545485    -3.386077    -6.463972    -9.797388    -6.887094    -0.405152    -0.481292    0.449487    -8.157908    0.872382    -3.723934    13.609367    11.848326    -13.800937    -3.673997    -12.626328    -2.189589    -2.575979    -1.840626    2.793194    
-4.401856    80.005981    105.425003    -0.182984    -3.868280    -171.680695    -0.963837    -12.292175    1.532994    0.210052    9.267836    1.619779    1.172395    5.790215    -2.677102    7.401999    -6.956533    -1.403676    2.674060    17.233784    -2.286773    -44.851578    48.265564    -41.718849    0.844956    -9.084109    -18.428255    16.776564    -8.695693    1.736444    6.246497    22.050686    -2.832260    34.925308    46.490322    44.016518    -3.148242    -8.153927    18.162264    -16.538242    -7.167336    -3.385436    7.782091    -6.229455    0.100550    -2.058620    13.702664    -3.381259    -6.479202    -9.849313    -6.923011    -0.404638    -0.488880    0.448924    -8.158938    0.862006    -3.749063    13.607829    11.910609    -13.802484    -3.661431    -12.669015    -2.184318    -2.596737    -1.697350    2.815130    
-4.406427    80.002174    105.418625    -0.182982    -3.855569    -171.656586    -0.964842    -12.275925    1.537593    0.205969    9.280591    1.624680    1.157666    5.801476    -2.681978    7.412062    -6.952310    -1.405462    2.657145    17.243944    -2.273995    -44.948570    48.247940    -41.650940    0.885641    -9.145868    -18.398136    16.865170    -8.734246    1.843130    6.255052    22.045198    -2.864031    34.895447    46.522633    44.031101    -3.144353    -8.184307    18.172432    -16.533714    -7.194756    -3.409754    7.758625    -6.305511    0.104815    -2.017859    13.859525    -3.383999    -6.492874    -9.901676    -6.956257    -0.403975    -0.496313    0.448193    -8.159692    0.851884    -3.774500    13.606026    11.973267    -13.803896    -3.648748    -12.712016    -2.179222    -2.617081    -1.557594    2.836625    
-4.410772    79.998367    105.412102    -0.183082    -3.842427    -171.631973    -0.965971    -12.259844    1.541925    0.201976    9.293233    1.629245    1.143419    5.813497    -2.687036    7.422336    -6.945832    -1.407556    2.640316    17.253487    -2.261313    -45.047974    48.225876    -41.578384    0.919061    -9.222059    -18.371330    16.942593    -8.788910    1.946584    6.262845    22.041061    -2.893660    34.870628    46.551571    44.042099    -3.140555    -8.214176    18.181845    -16.529692    -7.221543    -3.434819    7.735971    -6.379853    0.117020    -1.976209    14.014612    -3.399680    -6.506155    -9.953954    -6.985229    -0.403194    -0.503967    0.447333    -8.160076    0.842078    -3.800267    13.603868    12.036463    -13.805418    -3.635859    -12.755483    -2.174242    -2.636533    -1.423721    2.857170    
-4.414847    79.994568    105.405304    -0.183326    -3.828511    -171.606522    -0.967188    -12.243721    1.545912    0.197939    9.305566    1.633537    1.129889    5.826344    -2.692376    7.432764    -6.935977    -1.410183    2.623618    17.262259    -2.248593    -45.151352    48.197975    -41.499187    0.942948    -9.318326    -18.348684    17.005642    -8.865830    2.046357    6.269417    22.038773    -2.920418    34.853584    46.576023    44.047710    -3.136981    -8.243432    18.190155    -16.526489    -7.247508    -3.461164    7.714338    -6.451727    0.138181    -1.933621    14.167368    -3.430477    -6.516932    -10.006355    -7.008661    -0.402222    -0.511141    0.446261    -8.159785    0.832831    -3.826704    13.600905    12.100595    -13.807417    -3.622528    -12.799680    -2.168952    -2.655310    -1.295288    2.876998    
